PathFileType	4	(X/Y/Z)	C:\human.trc
DataRate	CameraRate	NumFrames	NumMarkers	Units	OrigDataRate	OrigDataStartFrame	OrigNumFrames
200.00	200.00	      7	35	mm	200.00	1	      2387
Frame#	Time	HEADF			HEADR			HEADL			RSHO			RELBL			RELBM			RWRISTR			RWRISTU			RMP			LSHO			LELBL			LELBM			LWRISTR			LWRISTU			LMP			RPEL			RHIP			RKNEEO			RANK			RHEEL			RPINKY			RTHUMB			LPEL			LHIP			LKNEEO			LANK			LHEEL			LPINKY			LTHUMB			T1			T7			L5			STERNUP			STERNLOW			SCAP			
		X1	Y1	Z1	X2	Y2	Z2	X3	Y3	Z3	X4	Y4	Z4	X5	Y5	Z5	X6	Y6	Z6	X7	Y7	Z7	X8	Y8	Z8	X9	Y9	Z9	X10	Y10	Z10	X11	Y11	Z11	X12	Y12	Z12	X13	Y13	Z13	X14	Y14	Z14	X15	Y15	Z15	X16	Y16	Z16	X17	Y17	Z17	X18	Y18	Z18	X19	Y19	Z19	X20	Y20	Z20	X21	Y21	Z21	X22	Y22	Z22	X23	Y23	Z23	X24	Y24	Z24	X25	Y25	Z25	X26	Y26	Z26	X27	Y27	Z27	X28	Y28	Z28	X29	Y29	Z29	X30	Y30	Z30	X31	Y31	Z31	X32	Y32	Z32	X33	Y33	Z33	X34	Y34	Z34	X35	Y35	Z35	

1	0.000	46.83710	768.45087	1564.42505	-37.41063	859.60126	1510.65979	123.12200	793.24658	1560.28247	-64.54414	885.21625	1356.35120	-339.94278	892.23541	1348.00391	-340.97998	848.24774	1299.71826	-563.18066	850.56604	1357.97766	-559.43097	913.06500	1335.11523	-627.89502	904.57318	1380.70020	184.66914	892.80353	1356.36707	447.59070	901.37445	1354.14490	453.94046	865.97626	1275.32019	670.85095	881.83698	1318.72754	656.85699	944.49286	1313.61108	737.36249	941.09381	1355.33313	-69.67134	756.74957	880.52582	-121.05706	821.66827	851.52087	-129.15298	841.15240	433.24017				-88.24005	959.22852	63.24048	-198.02135	842.06671	39.76648	-137.63031	768.69537	47.22820	165.74834	763.10278	877.32288	212.52167	845.12909	823.77313	209.57089	860.69208	444.90027	196.50269	932.96649	84.75998	144.80536	978.29834	48.98258	238.64624	837.75867	43.48384	160.66537	787.14917	45.37559				55.71764	945.19922	1188.75610	46.05001	922.36133	941.23010	62.07008	779.14832	1289.08118	56.33035	734.99268	1162.15088	-57.30358	937.56244	1184.43140	
2	0.005	46.73002	768.28406	1564.32385	-37.39720	859.56079	1510.51392	123.06030	793.10089	1560.19385	-64.39630	885.19434	1356.19006	-339.91681	892.29346	1348.02783	-340.95697	848.24585	1299.71399	-563.08301	850.63666	1358.02808	-559.38324	913.22632	1335.19604	-627.84650	904.58307	1380.67468	185.04419	892.70056	1356.71545	447.65414	901.36420	1354.09912	453.94046	865.97626	1275.32019	670.89813	881.83453	1318.69653	656.88489	944.49799	1313.48767	737.36963	941.07263	1355.26477	-69.67410	756.74933	880.53888	-121.07388	821.88312	851.53253	-129.17459	841.00952	433.21841				-88.35316	959.28162	63.11348	-198.02460	842.10583	39.75774	-137.63515	768.68964	47.18802	165.74467	763.09210	877.31433	212.51610	845.12579	823.76477	209.56436	860.78461	444.86566	196.50418	932.95868	84.75671	146.72639	978.70251	50.61592	238.64424	837.75604	43.47869	160.68019	787.14557	45.37371				55.73960	945.18701	1188.74915	46.02894	922.32562	941.27258	62.23513	779.10645	1289.06836	56.43695	735.12329	1162.09802	-57.30447	937.54144	1184.41028	
3	0.010	46.60199	768.20239	1564.16992	-37.47516	859.61652	1510.57678	123.04667	793.02863	1560.20313	-64.49439	885.22748	1356.29150	-339.85925	892.35358	1348.06580	-340.92258	848.24524	1299.70459	-562.98615	850.69318	1358.04980	-559.30945	913.44122	1335.31531	-627.74072	904.71649	1380.73364	185.03613	892.69177	1356.67273	447.71866	901.29211	1354.07263	454.26898	865.80811	1275.11548	670.89178	881.72998	1318.62952	657.14032	944.53351	1313.52124	737.39935	941.05261	1355.21179	-69.68201	756.74011	880.53284	-121.08365	821.89746	851.55457	-129.17361	841.13007	433.25708				-88.21600	959.21191	63.23836	-198.01649	842.10107	39.75716	-137.65193	768.59131	47.20974	165.72614	763.09888	877.31854	212.51080	845.13068	823.77490	209.56833	860.70831	444.90030	196.50734	932.95898	84.76516	144.85687	978.27161	48.98668	238.65045	837.74750	43.48325	160.67476	787.14655	45.37633				55.80512	945.15698	1188.75903	46.03992	922.33411	941.25220	62.29000	779.11554	1289.00952	56.44707	735.12103	1162.10120	-57.28953	937.64075	1184.50232	
4	0.015	46.50049	768.11572	1564.11499	-37.43996	859.57385	1510.46399	122.95092	792.80127	1560.03162	-64.33290	885.16901	1356.15979	-339.82663	892.33563	1348.05713	-340.89862	848.24121	1299.70288	-562.95087	850.72540	1358.04370	-559.23016	913.66919	1335.41516	-627.71344	904.74274	1380.71399	184.75179	892.62982	1356.65063	447.74161	901.35248	1353.97852	454.26898	865.80811	1275.11548	671.00873	881.79266	1318.61133	657.27197	944.57318	1313.47021	737.39093	941.01630	1355.13159	-69.69477	756.75592	880.54236	-121.08357	821.76392	851.56305	-129.29788	840.62659	433.30710				-88.42906	959.34998	63.07016	-198.02127	842.08209	39.76487	-137.64748	768.61334	47.20498	165.71132	763.09723	877.31134	212.49922	845.14972	823.77209	209.54895	860.83838	444.90884	196.51062	932.95270	84.76935	144.87769	978.27087	48.98893	238.68906	837.85602	43.47476	160.67984	787.14270	45.37893				55.78894	945.14050	1188.74878	46.01754	922.32733	941.21936	62.31853	779.09174	1288.99609	56.34985	734.93250	1162.23157	-57.24884	937.62573	1184.53003	
5	0.020	46.79253	768.16235	1564.22266	-37.43204	859.59869	1510.44690	122.94286	792.83868	1560.06042	-64.37054	885.17810	1356.29761	-339.75912	892.34576	1348.06348	-340.88516	848.24835	1299.68921	-562.91016	850.74323	1358.04565	-559.17395	913.80420	1335.49731	-627.64014	904.77942	1380.74536	184.80821	892.63873	1356.62024	447.82196	901.32574	1353.89563	454.42825	865.79480	1274.87988	670.97595	881.75226	1318.35181	657.31604	944.59015	1313.38538	737.42041	940.97711	1355.01306	-69.75925	756.77252	880.56592	-121.09986	821.88184	851.54846	-129.20560	841.29822	433.22021				-88.19449	959.20996	63.23713	-198.02788	842.06995	39.77004	-137.61662	768.69153	47.25319	165.68823	763.08344	877.30432	212.47719	845.13971	823.77545	209.54196	860.76868	444.94421	196.49873	932.94525	84.76591	146.76538	978.67371	50.61850	238.63324	837.70197	43.45528	160.67645	787.14069	45.38153				55.88032	945.13190	1188.78027	46.16427	922.34930	941.36530	62.31349	779.08221	1288.97742	56.45182	735.11194	1162.09863	-57.23167	937.63007	1184.54236	
6	0.025	46.72390	768.08539	1564.12671	-37.42690	859.60992	1510.45032	122.93797	792.64160	1560.01953	-64.22701	885.13403	1356.16443	-339.73312	892.35315	1348.01611	-340.83798	848.25201	1299.67017	-562.86993	850.79419	1358.07739	-559.11920	913.86102	1335.51038	-627.58917	904.85333	1380.77698	184.74440	892.69580	1356.37048	447.85013	901.31476	1353.80347	454.34821	865.96228	1274.67627	670.99829	881.77954	1318.23413	657.47974	944.64362	1313.36707	737.44928	940.95703	1354.93262	-69.77181	756.78400	880.56781	-121.11586	821.89105	851.55920	-129.21555	841.14716	433.26996				-88.32841	959.26031	63.11454	-198.04024	842.09143	39.76203	-137.66824	768.60150	47.18631	165.69661	763.12201	877.31500	212.46001	845.13953	823.78326	209.53008	860.83893	444.92191	196.49455	932.94104	84.77132	144.84122	978.24878	48.98357	238.64133	837.73883	43.49743	160.67613	787.13629	45.37923				55.89096	945.12256	1188.77454	46.03110	922.35217	941.27734	62.33688	779.01959	1289.02930	56.46363	735.15558	1161.99060	-57.16589	937.62219	1184.54736	
7	0.030	46.55621	767.88379	1564.09900	-37.40905	859.61432	1510.44019	122.86562	792.53223	1560.08447	-64.16502	885.18079	1356.13074	-339.68124	892.43402	1348.08472	-340.82251	848.24792	1299.67102	-562.83423	850.83398	1358.07764	-559.08850	913.90790	1335.50305	-627.54425	904.86951	1380.77380	185.10905	892.67157	1356.56372	447.88339	901.32404	1353.77319	454.63440	865.88928	1274.74219	671.02155	881.79108	1318.12195	657.60895	944.65454	1313.37292	737.52222	940.91370	1354.83801	-69.71505	756.79498	880.54144	-121.12656	821.91449	851.56555	-129.23248	840.99927	433.25391				-88.20059	959.36340	63.19437	-198.03738	842.10187	39.77560	-137.62816	768.69354	47.27223	165.68608	763.12543	877.31647	212.45155	845.17493	823.79553	209.51837	860.85468	444.93103	196.50218	932.93231	84.78458	144.79669	978.24353	48.97833	238.64223	837.73547	43.50204	160.66927	787.14063	45.39190				55.92146	945.12695	1188.80591	46.09452	922.34686	941.28754	62.35826	779.07703	1288.98425	56.45429	735.09308	1162.09033	-57.14591	937.63202	1184.50464	
